<?xml version="1.0" encoding="utf-8"?>
<svg viewBox="0 0 150 150" xmlns="http://www.w3.org/2000/svg">
    <defs>
        <linearGradient gradientUnits="userSpaceOnUse" x1="75" y1="0" x2="75" y2="150" id="gradient-0"
                        gradientTransform="matrix(0.427065, 0.90422, -3.161565, 1.493197, 454.449778, -169.857516)">
            <stop offset="0" style="stop-color: rgb(251, 41, 76);"/>
            <stop offset="1" style="stop-color: rgb(107, 2, 20);"/>
        </linearGradient>
    </defs>
    <g>
        <circle style="paint-order: fill; fill: url(#gradient-0);" cx="75" cy="75" r="75"/>
        <path d="M 31.069 107.789 L 29.199 113.299 C 20.006 110.726 15.319 104.856 15.139 95.689 L 15.139 87.359 C 15.139 81.506 12.626 78.579 7.599 78.579 L 7.599 71.619 C 12.626 71.619 15.139 68.676 15.139 62.789 L 15.139 54.509 C 15.212 49.822 16.429 46.036 18.789 43.149 C 21.142 40.256 24.612 38.159 29.199 36.859 L 31.069 42.329 C 26.569 43.782 24.239 47.766 24.079 54.279 L 24.079 62.719 C 24.079 68.579 21.826 72.692 17.319 75.059 C 21.826 77.452 24.079 81.606 24.079 87.519 L 24.079 95.839 C 24.239 102.352 26.569 106.336 31.069 107.789 Z"
              transform="matrix(1, 0, 0, 1, 0, 0)" style="fill: rgb(255, 255, 255); white-space: pre;"/>
        <path d="M 55.455 99.239 L 37.305 99.239 L 37.305 49.469 L 54.355 49.469 C 59.988 49.469 64.275 50.599 67.215 52.859 C 70.155 55.112 71.625 58.472 71.625 62.939 C 71.625 65.219 71.008 67.269 69.775 69.089 C 68.542 70.916 66.742 72.329 64.375 73.329 C 67.062 74.062 69.142 75.436 70.615 77.449 C 72.082 79.469 72.815 81.889 72.815 84.709 C 72.815 89.382 71.318 92.972 68.325 95.479 C 65.325 97.986 61.035 99.239 55.455 99.239 Z M 56.275 76.779 L 45.955 76.779 L 45.955 92.339 L 55.555 92.339 C 58.268 92.339 60.388 91.666 61.915 90.319 C 63.442 88.972 64.205 87.102 64.205 84.709 C 64.205 79.536 61.562 76.892 56.275 76.779 Z M 45.955 56.449 L 45.955 70.429 L 54.425 70.429 C 57.118 70.429 59.222 69.819 60.735 68.599 C 62.248 67.379 63.005 65.652 63.005 63.419 C 63.005 60.959 62.305 59.182 60.905 58.089 C 59.505 56.996 57.322 56.449 54.355 56.449 L 45.955 56.449 ZM 116.502 49.469 L 116.502 56.449 L 100.982 56.449 L 100.982 99.239 L 92.402 99.239 L 92.402 56.449 L 77.022 56.449 L 77.022 49.469 L 116.502 49.469 Z"
              transform="matrix(1, 0, 0, 1, 0, 0)" style="fill: rgb(255, 255, 255); white-space: pre;"/>
        <path d="M 120.898 113.299 L 119.018 107.789 C 123.604 106.309 125.951 102.249 126.058 95.609 L 126.058 87.479 C 126.058 81.466 128.428 77.339 133.168 75.099 C 128.428 72.859 126.058 68.692 126.058 62.599 L 126.058 54.509 C 125.951 47.869 123.604 43.809 119.018 42.329 L 120.898 36.859 C 125.638 38.186 129.168 40.339 131.488 43.319 C 133.801 46.299 134.958 50.199 134.958 55.019 L 134.958 62.829 C 134.958 68.689 137.484 71.619 142.538 71.619 L 142.538 78.579 C 137.484 78.579 134.958 81.506 134.958 87.359 L 134.958 95.059 C 134.958 99.932 133.794 103.859 131.468 106.839 C 129.134 109.819 125.611 111.972 120.898 113.299 Z"
              transform="matrix(1, 0, 0, 1, 0, 0)" style="fill: rgb(255, 255, 255); white-space: pre;"/>
    </g>
</svg>