<?xml version="1.0" encoding="utf-8"?>
<svg viewBox="161 252.016 262.563 41.094" xmlns="http://www.w3.org/2000/svg">
    <path d="M 172.385 290.023 L 171.895 291.383 C 169.982 290.816 168.538 289.89 167.565 288.603 C 166.598 287.316 166.115 285.606 166.115 283.473 L 166.115 279.693 C 166.115 276.7 164.798 275.203 162.165 275.203 L 162.165 273.423 C 164.798 273.423 166.115 271.936 166.115 268.963 L 166.115 265.053 C 166.128 262.966 166.612 261.28 167.565 259.993 C 168.525 258.706 169.968 257.773 171.895 257.193 L 172.335 258.543 C 169.555 259.43 168.165 261.656 168.165 265.223 L 168.165 268.863 C 168.165 271.663 167.118 273.48 165.025 274.313 C 167.118 275.193 168.165 277.006 168.165 279.753 L 168.165 283.643 C 168.212 286.97 169.618 289.096 172.385 290.023 Z"
          transform="matrix(1, 0, 0, 1, 0, 0)" style="fill: rgb(255, 255, 255); white-space: pre;"/>
    <path d="M 189.678 284.483 L 182.548 284.483 L 182.548 263.153 L 188.838 263.153 C 191.125 263.153 192.858 263.626 194.038 264.573 C 195.225 265.513 195.818 266.9 195.818 268.733 C 195.818 269.84 195.518 270.8 194.918 271.613 C 194.318 272.426 193.495 273.01 192.448 273.363 C 193.688 273.636 194.685 274.246 195.438 275.193 C 196.198 276.14 196.578 277.233 196.578 278.473 C 196.578 280.36 195.968 281.833 194.748 282.893 C 193.535 283.953 191.845 284.483 189.678 284.483 Z M 189.898 274.233 L 184.348 274.233 L 184.348 282.963 L 189.748 282.963 C 191.295 282.963 192.518 282.57 193.418 281.783 C 194.325 280.996 194.778 279.903 194.778 278.503 C 194.778 277.19 194.345 276.15 193.478 275.383 C 192.612 274.616 191.418 274.233 189.898 274.233 Z M 184.348 264.693 L 184.348 272.723 L 189.268 272.723 C 190.768 272.69 191.932 272.336 192.758 271.663 C 193.585 270.983 193.998 269.993 193.998 268.693 C 193.998 267.326 193.572 266.316 192.718 265.663 C 191.865 265.016 190.572 264.693 188.838 264.693 L 184.348 264.693 ZM 199.927 284.483 L 199.927 282.963 L 213.417 282.963 L 213.417 284.483 L 199.927 284.483 Z M 201.347 274.523 L 201.347 272.983 L 211.867 272.983 L 211.867 274.523 L 201.347 274.523 Z M 200.107 264.693 L 200.107 263.153 L 213.007 263.153 L 213.007 264.693 L 200.107 264.693 ZM 233.566 263.153 L 233.566 284.483 L 231.766 284.483 L 219.506 266.233 L 219.506 284.483 L 217.696 284.483 L 217.696 263.153 L 219.506 263.153 L 231.786 281.423 L 231.786 263.153 L 233.566 263.153 Z"
          transform="matrix(1, 0, 0, 1, 0, 0)" style="fill: rgb(255, 255, 255); white-space: pre;"/>
    <path d="M 238.409 283.433 C 238.409 283.086 238.519 282.793 238.739 282.553 C 238.959 282.313 239.266 282.193 239.659 282.193 C 240.052 282.193 240.359 282.313 240.579 282.553 C 240.806 282.793 240.919 283.086 240.919 283.433 C 240.919 283.773 240.806 284.053 240.579 284.273 C 240.359 284.493 240.052 284.603 239.659 284.603 C 239.266 284.603 238.959 284.493 238.739 284.273 C 238.519 284.053 238.409 283.773 238.409 283.433 ZM 248.34 263.153 L 248.34 284.483 L 246.54 284.483 L 246.54 263.153 L 248.34 263.153 ZM 268.177 263.153 L 268.177 264.693 L 260.867 264.693 L 260.867 284.483 L 259.067 284.483 L 259.067 264.693 L 251.767 264.693 L 251.767 263.153 L 268.177 263.153 Z"
          transform="matrix(1, 0, 0, 1, 0, 0)" style="fill: rgb(217, 4, 41); white-space: pre;"/>
    <path d="M 293.38 263.153 L 293.38 264.693 L 286.07 264.693 L 286.07 284.483 L 284.27 284.483 L 284.27 264.693 L 276.97 264.693 L 276.97 263.153 L 293.38 263.153 ZM 309.941 284.483 L 304.781 275.603 L 298.591 275.603 L 298.591 284.483 L 296.771 284.483 L 296.771 263.153 L 303.701 263.153 C 305.974 263.153 307.751 263.706 309.031 264.813 C 310.311 265.913 310.951 267.456 310.951 269.443 C 310.951 270.81 310.551 272.013 309.751 273.053 C 308.951 274.1 307.878 274.823 306.531 275.223 L 311.861 284.293 L 311.861 284.483 L 309.941 284.483 Z M 298.591 264.693 L 298.591 274.063 L 304.111 274.063 C 305.624 274.063 306.841 273.636 307.761 272.783 C 308.674 271.923 309.131 270.81 309.131 269.443 C 309.131 267.936 308.654 266.77 307.701 265.943 C 306.741 265.11 305.398 264.693 303.671 264.693 L 298.591 264.693 Z"
          transform="matrix(1, 0, 0, 1, 0, 0)" style="fill: rgb(255, 255, 255); white-space: pre;"/>
    <path d="M 329.549 284.483 L 322.809 265.793 L 316.099 284.483 L 314.159 284.483 L 321.949 263.153 L 323.689 263.153 L 331.499 284.483 L 329.549 284.483 ZM 335.013 263.153 L 341.723 281.843 L 341.833 282.303 L 341.973 281.843 L 348.673 263.153 L 350.653 263.153 L 342.713 284.483 L 340.983 284.483 L 333.043 263.153 L 335.013 263.153 Z"
          transform="matrix(1, 0, 0, 1, 0, 0)" style="fill: rgb(217, 4, 41); white-space: pre;"/>
    <path d="M 352.789 284.483 L 352.789 282.963 L 366.279 282.963 L 366.279 284.483 L 352.789 284.483 Z M 354.209 274.523 L 354.209 272.983 L 364.729 272.983 L 364.729 274.523 L 354.209 274.523 Z M 352.969 264.693 L 352.969 263.153 L 365.869 263.153 L 365.869 264.693 L 352.969 264.693 ZM 383.677 284.483 L 378.517 275.603 L 372.327 275.603 L 372.327 284.483 L 370.507 284.483 L 370.507 263.153 L 377.437 263.153 C 379.71 263.153 381.487 263.706 382.767 264.813 C 384.047 265.913 384.687 267.456 384.687 269.443 C 384.687 270.81 384.287 272.013 383.487 273.053 C 382.687 274.1 381.614 274.823 380.267 275.223 L 385.597 284.293 L 385.597 284.483 L 383.677 284.483 Z M 372.327 264.693 L 372.327 274.063 L 377.847 274.063 C 379.36 274.063 380.577 273.636 381.497 272.783 C 382.41 271.923 382.867 270.81 382.867 269.443 C 382.867 267.936 382.39 266.77 381.437 265.943 C 380.477 265.11 379.134 264.693 377.407 264.693 L 372.327 264.693 ZM 401.665 279.243 C 401.665 278.056 401.249 277.12 400.415 276.433 C 399.589 275.746 398.069 275.093 395.855 274.473 C 393.649 273.853 392.039 273.176 391.025 272.443 C 389.579 271.41 388.855 270.053 388.855 268.373 C 388.855 266.74 389.529 265.413 390.875 264.393 C 392.215 263.373 393.932 262.863 396.025 262.863 C 397.439 262.863 398.705 263.136 399.825 263.683 C 400.939 264.23 401.805 264.99 402.425 265.963 C 403.039 266.943 403.345 268.033 403.345 269.233 L 401.525 269.233 C 401.525 267.78 401.029 266.61 400.035 265.723 C 399.042 264.843 397.705 264.403 396.025 264.403 C 394.392 264.403 393.092 264.766 392.125 265.493 C 391.159 266.22 390.675 267.17 390.675 268.343 C 390.675 269.423 391.109 270.306 391.975 270.993 C 392.849 271.673 394.242 272.276 396.155 272.803 C 398.069 273.323 399.519 273.863 400.505 274.423 C 401.492 274.99 402.232 275.663 402.725 276.443 C 403.225 277.223 403.475 278.146 403.475 279.213 C 403.475 280.893 402.805 282.24 401.465 283.253 C 400.119 284.266 398.349 284.773 396.155 284.773 C 394.649 284.773 393.269 284.506 392.015 283.973 C 390.762 283.433 389.809 282.68 389.155 281.713 C 388.509 280.746 388.185 279.64 388.185 278.393 L 389.985 278.393 C 389.985 279.893 390.549 281.08 391.675 281.953 C 392.795 282.82 394.289 283.253 396.155 283.253 C 397.815 283.253 399.149 282.886 400.155 282.153 C 401.162 281.42 401.665 280.45 401.665 279.243 Z"
          transform="matrix(1, 0, 0, 1, 0, 0)" style="fill: rgb(255, 255, 255); white-space: pre;"/>
    <path d="M 412.602 291.383 L 412.102 290.023 C 414.876 289.096 416.286 286.97 416.332 283.643 L 416.332 279.813 C 416.332 276.933 417.429 275.106 419.622 274.333 C 417.429 273.56 416.332 271.743 416.332 268.883 L 416.332 265.243 C 416.332 261.643 414.942 259.41 412.162 258.543 L 412.602 257.193 C 414.549 257.773 415.999 258.716 416.952 260.023 C 417.906 261.323 418.382 263.033 418.382 265.153 L 418.382 268.963 C 418.382 271.936 419.696 273.423 422.322 273.423 L 422.322 275.203 C 419.696 275.203 418.382 276.7 418.382 279.693 L 418.382 283.473 C 418.382 285.606 417.896 287.316 416.922 288.603 C 415.956 289.89 414.516 290.816 412.602 291.383 Z"
          transform="matrix(1, 0, 0, 1, 0, 0)" style="fill: rgb(255, 255, 255); white-space: pre;"/>
</svg>